<svg width="501" height="500" viewBox="0 0 501 500" fill="none" xmlns="http://www.w3.org/2000/svg">
<g clip-path="url(#clip0_1667_86)">
<path d="M320.1 59.6372C326.28 56.2174 333.6 55.9874 340.499 55.8674C347.959 55.9574 356.138 56.5673 362.238 61.3671C366.058 64.3169 367.678 69.1966 367.688 73.8863C365.318 73.8963 362.958 73.8863 360.598 73.8863C359.738 69.2866 357.718 64.3369 352.928 62.637C344.919 59.5972 335.719 59.7871 327.56 62.167C321.02 63.9769 318.63 73.4364 323.67 78.0061C327.28 80.8859 332.09 81.2759 336.439 82.2458C345.359 84.1457 354.818 84.4557 363.128 88.5255C371.987 92.9652 371.647 107.134 363.838 112.454C357.358 116.904 349.119 117.394 341.499 117.454C333.2 117.324 324.15 116.544 317.401 111.184C313.081 107.764 311.741 102.075 311.491 96.825C313.911 96.705 316.331 96.665 318.76 96.655C319.29 102.235 321.91 108.034 327.47 110.154C336.169 113.534 346.229 113.494 355.108 110.804C361.318 109.054 363.728 101.145 360.908 95.7251C359.568 93.2752 356.938 91.9453 354.358 91.2353C343.509 88.3055 332.02 88.1455 321.42 84.2357C311.421 80.5659 311.091 64.6269 320.1 59.6372Z" fill="#326690"/>
<path d="M387.566 60.2671C395.846 56.0473 405.435 55.3874 414.555 56.1373C423.214 56.8573 432.034 60.0571 437.893 66.6967C445.163 74.5263 446.463 86.3656 443.733 96.355C442.253 101.955 438.323 106.374 434.104 110.134C437.434 112.554 440.893 114.784 444.223 117.224C442.733 118.664 441.203 120.054 439.633 121.404C436.114 119.144 432.884 116.444 429.244 114.394C426.434 114.394 423.864 116.094 421.064 116.484C413.265 117.864 405.155 117.964 397.366 116.434C388.876 114.734 380.717 109.974 376.137 102.475C371.607 95.1451 371.017 85.8956 373.097 77.6861C375.017 70.0865 380.627 63.7469 387.566 60.2671ZM398.876 61.617C390.786 63.4969 383.247 69.1366 380.627 77.2361C377.857 85.9556 378.817 96.465 385.137 103.465C390.696 109.764 399.256 112.604 407.485 112.734C416.585 113.034 426.544 110.424 432.534 103.155C440.713 92.6352 439.773 75.1062 428.824 66.8067C420.554 60.0771 408.915 59.4671 398.876 61.617Z" fill="#326690"/>
<path d="M449.833 57.3673C452.133 57.3173 454.433 57.2573 456.743 57.1873C456.933 75.1263 456.783 93.0652 456.813 111.004C471.372 111.254 485.941 110.894 500.5 111.184C500.5 112.774 500.48 114.374 500.47 115.974C483.591 115.974 466.702 116.044 449.813 115.934C449.843 96.415 449.813 76.8862 449.833 57.3673Z" fill="#326690"/>
<path d="M272.173 178.26C288.102 174.84 305.181 175.28 320.53 181.06C331.16 185.09 340.599 192.099 347.689 200.979C351.069 205.219 351.499 210.908 351.718 216.118C351.868 228.527 349.369 240.797 346.179 252.736C340.079 274.835 330.82 296.013 319.18 315.732C318.03 317.672 316.78 319.552 315.401 321.332C315.291 320.792 315.081 319.692 314.971 319.142C316.421 315.342 318.53 311.763 319.35 307.733C322.27 296.353 319.8 284.644 318.75 273.195C317.65 262.385 321.34 251.876 321.25 241.097C321.67 235.817 319.58 230.827 317.55 226.088C310.211 209.678 298.532 195.069 283.552 185.04C279.903 182.53 275.813 180.78 272.173 178.26Z" fill="#326690"/>
<path d="M227.916 179.76C247.515 177.27 268.103 182.66 283.673 194.919C296.542 205.089 306.711 218.868 312.191 234.357C303.081 234.037 292.752 233.667 285.392 239.997C278.713 245.626 277.853 255.236 279.353 263.315C282.843 282.514 294.162 298.833 302.521 316.092C304.741 320.142 307.731 323.672 310.561 327.302C307.181 329.012 303.411 330.641 301.492 334.121C298.132 339.541 299.312 346.151 298.482 352.17C296.552 369.039 294.652 385.928 291.902 402.687C290.602 410.717 287.192 419.256 279.603 423.256C271.833 427.206 262.804 429.686 254.064 428.346C245.765 426.886 240.535 419.156 238.185 411.617C236.465 405.297 236.285 398.698 235.795 392.198C234.965 376.499 234.945 360.77 235.355 345.051C235.695 338.911 232.546 332.521 227.076 329.542C224.426 328.052 221.326 327.852 218.356 327.612C220.686 316.062 227.716 306.093 230.126 294.564C233.255 280.294 231.526 265.445 228.326 251.356C226.766 244.326 221.416 238.107 214.297 236.397C203.337 233.637 192.288 237.927 182.478 242.507C183.718 226.577 187.978 210.278 197.738 197.349C204.907 187.73 216.036 181.31 227.916 179.76Z" fill="#326690"/>
<path d="M144.391 181.08C161.84 177.72 179.738 181.28 196.488 186.39C189.098 194.509 183.348 204.069 179.988 214.538C175.419 228.517 173.329 243.397 174.419 258.086C175.049 268.435 174.779 278.834 173.339 289.104C171.529 302.513 176.909 316.302 186.868 325.352C180.088 333.281 172.899 340.841 166.329 348.95C163.429 352.37 159.51 356.44 154.57 355.42C148.79 353.75 145.11 348.47 141.891 343.731C133.191 329.812 127.941 314.092 123.142 298.483C117.762 280.014 113.222 261.246 110.612 242.167C109.313 227.647 110.122 212.078 117.552 199.149C123.112 189.36 133.491 183.12 144.391 181.08Z" fill="#326690"/>
<path d="M291.032 245.646C297.452 241.087 305.851 242.107 313.271 242.567C312.951 252.826 309.791 262.885 310.821 273.215C311.751 285.994 315.461 299.733 309.431 311.853C301.351 295.773 290.902 280.424 287.262 262.515C286.232 256.816 285.972 249.606 291.032 245.646ZM293.402 248.046C291.262 249.806 293.572 252.426 295.412 253.256C299.862 255.876 305.961 252.216 306.111 247.126C302.091 245.256 297.042 245.446 293.402 248.046Z" fill="#326690"/>
<path d="M182.198 252.256C190.248 247.056 199.657 242.977 209.407 243.537C214.456 243.757 219.116 247.326 220.326 252.296C224.756 269.935 226.126 289.554 217.646 306.253C214.686 312.693 212.287 319.372 210.217 326.142C196.108 326.282 184.108 314.362 181.608 300.933C179.898 293.344 182.128 285.704 182.388 278.095C182.978 269.485 182.368 260.866 182.198 252.256ZM204.817 248.346C203.587 248.776 202.297 249.616 202.547 251.116C203.427 256.226 210.277 259.336 214.586 256.156C216.486 255.086 218.486 252.136 216.296 250.356C213.167 247.816 208.617 247.326 204.817 248.346Z" fill="#326690"/>
<path d="M309.341 337.011C311.431 335.471 314.401 334.051 316.821 335.731C327.09 341.141 339.029 338.501 349.949 337.181C343.279 343.671 334.03 346.711 324.94 347.691C318.92 348.41 312.671 348.62 306.861 346.631C306.891 343.341 306.711 339.451 309.341 337.011Z" fill="#326690"/>
<path d="M205.917 349.59C211.817 346.421 214.157 339.431 219.666 335.841C225.666 334.991 230.056 343.911 225.516 348.131C216.656 360.13 198.927 362.42 186.118 355.89C192.438 352.96 199.827 353.19 205.917 349.59Z" fill="#326690"/>
<path d="M0.548819 57.3674C11.5482 57.4074 22.5476 57.2774 33.5569 57.2074C38.6566 57.1474 44.1463 58.0873 48.0861 61.5771C53.4258 66.1969 54.3557 74.3364 52.0658 80.716C49.356 87.6156 41.5865 90.8454 34.6069 91.0154C25.1974 91.1354 15.7779 90.9654 6.36848 91.0854C6.26849 99.3949 6.50848 107.694 6.41848 116.004C4.45859 116.004 2.49871 116.004 0.548819 116.004C0.488823 96.4551 0.478823 76.9162 0.548819 57.3674ZM6.44848 62.0571C6.43848 70.1966 6.40848 78.3361 6.46848 86.4757C15.158 86.4557 23.8475 86.6057 32.537 86.4057C37.3867 86.2557 43.0664 84.5858 45.0962 79.7061C46.6962 75.3363 46.4462 69.9066 43.4863 66.1569C40.6065 62.7071 35.7868 62.0671 31.557 62.0471C23.1875 62.0471 14.818 62.0471 6.44848 62.0571Z" fill="black"/>
<path d="M157.3 64.8969H163.339C163.339 69.0866 163.329 73.2664 163.369 77.4561C166.799 77.4961 170.229 77.4961 173.659 77.4561C173.709 78.816 173.759 80.166 173.819 81.5259C170.349 81.5959 166.879 81.5959 163.409 81.5259C163.269 89.7554 163.379 97.9749 163.329 106.194C163.389 108.064 163.209 110.544 165.119 111.614C167.789 112.954 170.879 112.464 173.739 112.304C173.739 113.604 173.749 114.914 173.759 116.224C169.349 116.724 164.599 117.054 160.51 115.024C158.04 113.734 157.22 110.784 157.27 108.184C157.22 99.2849 157.29 90.3954 157.25 81.4959C154.66 81.5059 152.08 81.4959 149.49 81.4659C149.51 80.136 149.52 78.806 149.54 77.4861C152.1 77.5161 154.65 77.4861 157.21 77.3861C157.24 73.2264 157.25 69.0666 157.3 64.9069V64.8969Z" fill="black"/>
<path d="M68.9548 76.7962C76.6044 75.6662 84.9639 75.9262 91.8435 79.816C102.183 85.6357 103.633 101.255 96.4333 110.054C90.2536 116.914 80.1342 117.844 71.4647 117.114C64.4251 116.684 57.2155 113.194 53.8857 106.734C50.8659 100.765 50.8259 93.3352 53.6457 87.2856C56.4856 81.3959 62.6752 77.8461 68.9548 76.7962ZM71.9047 80.6959C66.255 81.3559 60.6953 84.9157 58.8454 90.4854C56.7755 96.675 57.6555 104.395 62.6852 108.964C66.665 112.614 72.3546 113.464 77.5543 113.214C82.2741 113.024 87.2838 111.774 90.6536 108.244C94.3434 104.625 94.9533 99.0549 94.4734 94.1552C94.1034 89.9154 92.0635 85.6157 88.3237 83.3558C83.454 80.386 77.4443 80.056 71.9047 80.6959Z" fill="black"/>
<path d="M109.012 79.616C112.992 77.0761 117.892 76.6762 122.492 76.3562C128.981 76.2062 136.081 76.1662 141.701 79.896C144.83 81.8559 145.96 85.5657 146.4 89.0255C144.29 89.1055 142.171 89.1254 140.061 89.1254C139.621 86.2556 138.451 83.2158 135.571 82.0159C130.391 79.636 124.402 79.896 118.882 80.6859C115.452 81.1759 111.262 83.1258 111.162 87.1156C110.862 89.9454 113.452 91.9353 115.922 92.5452C123.202 94.3751 130.811 94.1952 138.141 95.7651C141.411 96.535 144.94 97.8449 146.8 100.835C149.34 105.175 147.76 111.404 143.361 113.914C138.021 117.074 131.561 117.234 125.522 117.264C119.642 117.034 113.242 116.934 108.223 113.434C105.143 111.304 104.083 107.494 103.503 103.995C105.693 103.965 107.883 103.995 110.072 104.035C110.182 108.804 114.192 112.184 118.692 112.754C125.232 113.694 132.461 114.234 138.551 111.194C142.771 109.074 142.361 102.245 137.901 100.665C128.851 98.0249 118.992 98.8949 110.072 95.6551C103.643 93.0952 103.543 83.2258 109.012 79.616Z" fill="black"/>
<path d="M191.878 77.2961C198.107 75.9062 204.777 75.8062 210.927 77.6661C214.436 78.6161 216.886 81.4159 219.536 83.6958C219.656 81.6459 219.706 79.596 219.816 77.5561C221.746 77.5561 223.676 77.5461 225.616 77.5061C226.136 89.3554 225.686 101.245 225.846 113.114C225.996 118.024 225.036 123.423 221.206 126.853C216.176 131.413 209.007 132.153 202.517 132.283C196.747 132.163 190.668 132.033 185.448 129.293C181.798 127.403 180.048 123.403 179.328 119.564C181.298 119.524 183.268 119.504 185.248 119.444C186.498 121.994 187.458 125.083 190.208 126.423C194.328 128.403 199.047 128.463 203.527 128.433C208.517 128.263 214.236 127.303 217.376 122.974C220.406 118.834 219.716 113.424 219.716 108.614C213.466 114.944 204.017 116.124 195.568 115.104C190.268 114.494 184.728 112.604 181.268 108.334C177.069 103.145 176.549 95.8151 178.109 89.5354C179.738 83.1258 185.638 78.7061 191.878 77.2961ZM196.937 80.8659C192.588 81.5459 188.228 83.6658 185.808 87.4756C182.998 92.0053 182.958 97.925 184.848 102.815C186.858 107.884 192.328 110.474 197.477 111.004C204.017 111.944 211.647 111.094 216.316 105.934C221.546 99.5749 220.976 88.5355 213.976 83.6358C209.037 80.286 202.667 80.086 196.937 80.8659Z" fill="black"/>
<path d="M244.225 77.8861C248.604 75.9662 253.504 76.3262 258.174 76.3362C258.174 77.9661 258.184 79.596 258.204 81.2259C253.404 81.1559 248.054 80.516 243.925 83.5158C239.895 86.2756 238.505 91.4153 238.435 96.0651C238.365 102.705 238.475 109.354 238.405 116.004C236.425 116.004 234.445 115.984 232.475 115.984C232.285 103.175 232.255 90.3654 232.425 77.5561C234.405 77.5561 236.395 77.5561 238.375 77.5361C238.415 79.746 238.425 81.9659 238.485 84.1757C239.955 81.7459 241.505 79.086 244.225 77.8861Z" fill="black"/>
<path d="M260.254 85.8556C264.284 79.356 272.163 76.5862 279.493 76.3562C286.992 75.9862 295.452 77.0062 300.931 82.6858C304.991 86.6256 306.321 92.4053 306.541 97.875C292.222 98.0049 277.903 97.775 263.594 97.9949C263.924 101.865 265.094 105.874 268.103 108.534C273.663 113.644 282.053 114.104 289.102 112.524C293.782 111.514 297.382 107.874 299.102 103.515C301.281 103.505 303.461 103.515 305.651 103.535C303.781 110.034 298.052 114.744 291.572 116.204C282.792 118.244 272.673 117.894 265.104 112.504C256.834 106.694 255.274 94.2652 260.254 85.8556ZM271.083 82.7058C266.733 84.9557 264.694 89.7354 263.654 94.2752C275.823 94.3652 288.002 94.3552 300.181 94.2752C299.772 91.5053 298.962 88.6955 297.042 86.5756C290.892 79.126 279.253 78.3461 271.083 82.7058Z" fill="black"/>
<path d="M258.484 165.421C275.563 160.941 293.632 159.031 311.111 162.351C326.98 165.211 342.079 172.661 353.568 184.05C358.648 189.14 363.808 194.699 365.718 201.839C369.138 214.108 367.778 227.097 365.718 239.477C360.298 269.175 348.569 297.423 333.55 323.512C340.309 323.512 346.809 321.362 353.508 320.922C360.078 320.492 367.098 324.532 368.678 331.191C370.657 338.281 366.198 345.151 360.978 349.55C347.689 361.38 329.25 365.289 311.881 364.29C310.841 382.218 310.481 400.857 302.911 417.496C299.532 424.916 294.202 431.536 287.212 435.825C280.523 439.995 272.753 441.965 265.094 443.425C256.714 444.935 247.525 444.115 240.295 439.295C233.615 435.045 229.426 427.896 227.026 420.516C221.096 405.087 221.686 388.268 220.986 372.019C209.227 376.749 195.848 376.739 183.918 372.639C179.728 371.179 176.029 368.639 172.849 365.579C166.709 370.679 158.25 373.299 150.4 371.079C140.411 368.359 133.341 359.98 128.031 351.55C118.822 336.411 113.042 319.502 107.943 302.613C102.313 283.104 97.5332 263.285 94.9534 243.127C93.5035 225.208 95.1134 206.039 104.783 190.41C112.552 177.61 126.182 169.061 140.751 166.211C161.4 162.011 182.688 166.071 202.497 172.261C208.907 169.381 215.306 166.231 222.326 165.091C234.255 162.671 246.535 163.781 258.484 165.421ZM258.424 173.461C256.884 173.771 255.374 173.081 253.864 172.891C236.975 169.461 218.346 170.811 203.697 180.59C186.118 174.261 167.209 170.441 148.49 172.401C134.571 173.851 120.592 180.31 112.602 192.169C102.503 206.959 101.133 225.848 102.743 243.187C105.993 266.205 111.602 288.864 118.742 310.963C123.452 324.742 128.621 338.621 136.991 350.65C141.241 356.56 146.89 362.52 154.49 363.45C161.25 364.27 167.359 360.08 171.499 355.12C178.659 346.541 186.028 338.131 193.668 329.992C198.657 332.441 204.077 333.851 209.617 334.261C206.617 337.821 204.147 342.461 199.377 343.861C192.948 346.341 185.408 346.011 179.738 350.29C176.469 352.63 176.309 357.73 179.249 360.42C184.558 365.579 192.388 366.689 199.457 367.279C209.477 368.039 219.596 364.67 227.206 358.11C227.156 374.039 227.236 390.008 229.026 405.847C229.916 415.127 233.925 424.366 240.975 430.606C247.625 436.405 257.104 437.615 265.544 436.145C273.823 434.575 282.343 432.086 288.812 426.426C295.692 420.366 298.622 411.207 299.992 402.417C302.461 386.678 304.341 370.849 306.131 355.03C323.84 358.02 343.869 354.63 357.098 341.701C359.928 339.041 362.608 334.431 359.818 330.811C356.948 327.492 352.059 328.402 348.269 329.152C339.169 330.771 329.28 332.661 320.46 328.882C336.199 304.053 348.579 276.935 355.498 248.316C358.018 237.437 359.958 226.318 359.598 215.118C359.318 208.849 358.448 202.179 354.618 196.989C345.139 184.49 331.4 175.38 316.251 171.311C297.332 166.181 277.033 167.711 258.424 173.461Z" fill="black"/>
</g>
<defs>
<clipPath id="clip0_1667_86">
<rect width="500" height="500" fill="white" transform="translate(0.5)"/>
</clipPath>
</defs>
</svg>
